<svg width="14" height="19" viewBox="0 0 14 19" fill="none" xmlns="http://www.w3.org/2000/svg">
<path d="M6.16607 13.9479C4.48499 13.734 2.94844 12.888 1.86872 11.5819C0.789002 10.2758 0.247133 8.60754 0.35325 6.91624C0.459368 5.22494 1.20551 3.6375 2.44002 2.47658C3.67453 1.31566 5.30477 0.668362 6.9994 0.666262C8.6961 0.664998 10.3294 1.31071 11.5666 2.47183C12.8038 3.63294 13.5517 5.22209 13.6579 6.91546C13.7642 8.60883 13.2208 10.279 12.1384 11.5856C11.0561 12.8923 9.51628 13.7371 7.83273 13.9479V15.6763C11.1211 15.7529 13.6661 16.2788 13.6661 16.9163C13.6661 17.6063 10.6811 18.1663 6.9994 18.1663C3.31773 18.1663 0.332733 17.6063 0.332733 16.9163C0.332733 16.2788 2.87773 15.7529 6.16607 15.6763V13.9479ZM6.9994 12.3329C8.32548 12.3329 9.59725 11.8061 10.5349 10.8685C11.4726 9.93078 11.9994 8.65901 11.9994 7.33293C11.9994 6.00685 11.4726 4.73508 10.5349 3.79739C9.59725 2.85971 8.32548 2.33293 6.9994 2.33293C5.67332 2.33293 4.40155 2.85971 3.46387 3.79739C2.52618 4.73508 1.9994 6.00685 1.9994 7.33293C1.9994 8.65901 2.52618 9.93078 3.46387 10.8685C4.40155 11.8061 5.67332 12.3329 6.9994 12.3329ZM6.9994 8.99959C6.55737 8.99959 6.13345 8.824 5.82089 8.51144C5.50833 8.19888 5.33273 7.77496 5.33273 7.33293C5.33273 6.8909 5.50833 6.46698 5.82089 6.15442C6.13345 5.84186 6.55737 5.66626 6.9994 5.66626C7.44143 5.66626 7.86535 5.84186 8.17791 6.15442C8.49047 6.46698 8.66607 6.8909 8.66607 7.33293C8.66607 7.77496 8.49047 8.19888 8.17791 8.51144C7.86535 8.824 7.44143 8.99959 6.9994 8.99959Z" fill="#141414"/>
</svg>
