<svg width="13" height="15" viewBox="0 0 13 15" fill="none" xmlns="http://www.w3.org/2000/svg">
<path d="M5.33333 0.833374C8.04533 0.833374 10.284 2.85737 10.6227 5.47671L12.1227 7.83604C12.2213 7.99137 12.2013 8.22271 11.9727 8.32137L10.6667 8.88004V10.8334C10.6667 11.57 10.07 12.1667 9.33333 12.1667H8.00067L8 14.1667H2V11.704C2 10.9174 1.70933 10.1727 1.17067 9.50071C0.438 8.58737 0 7.42804 0 6.16671C0 3.22137 2.388 0.833374 5.33333 0.833374ZM5.33333 4.16671C4.96533 4.16671 4.66667 4.46537 4.66667 4.83337V5.49937L4 5.50004C3.632 5.50004 3.33333 5.79871 3.33333 6.16671C3.33333 6.53471 3.632 6.83337 4 6.83337L4.66667 6.83271V7.50004C4.66667 7.86804 4.96533 8.16671 5.33333 8.16671C5.70133 8.16671 6 7.86804 6 7.50004V6.83337H6.66667C7.03467 6.83337 7.33333 6.53471 7.33333 6.16671C7.33333 5.79871 7.03467 5.50004 6.66667 5.50004H6V4.83337C6 4.46537 5.70133 4.16671 5.33333 4.16671Z" fill="black"/>
</svg>
