<svg width="10" height="10" viewBox="0 0 10 10" fill="none" xmlns="http://www.w3.org/2000/svg">
<path d="M4.99999 7.5C6.83099 7.5 8.43249 8.2875 9.30349 9.4625L8.38249 9.898C7.67349 9.058 6.42349 8.5 4.99999 8.5C3.57649 8.5 2.32649 9.058 1.61749 9.898L0.696991 9.462C1.56799 8.287 3.16899 7.5 4.99999 7.5ZM4.99999 0C5.66303 0 6.29892 0.263392 6.76776 0.732233C7.2366 1.20107 7.49999 1.83696 7.49999 2.5V4C7.49995 4.64423 7.25122 5.26358 6.80566 5.72889C6.3601 6.1942 5.75212 6.46954 5.10849 6.4975L4.99999 6.5C4.33695 6.5 3.70107 6.23661 3.23222 5.76777C2.76338 5.29893 2.49999 4.66304 2.49999 4V2.5C2.50003 1.85577 2.74876 1.23642 3.19432 0.771111C3.63988 0.305803 4.24787 0.0304597 4.89149 0.00250006L4.99999 0ZM4.99999 1C4.61739 0.999979 4.24923 1.14616 3.97086 1.40864C3.69249 1.67112 3.52494 2.03005 3.50249 2.412L3.49999 2.5V4C3.49961 4.39045 3.6515 4.76566 3.92338 5.04591C4.19525 5.32615 4.56569 5.48934 4.95597 5.5008C5.34626 5.51226 5.72563 5.37108 6.01348 5.10727C6.30132 4.84346 6.47496 4.4778 6.49749 4.088L6.49999 4V2.5C6.49999 2.10218 6.34196 1.72064 6.06065 1.43934C5.77935 1.15804 5.39782 1 4.99999 1Z" fill="#898989"/>
</svg>
