<svg width="40" height="40" viewBox="0 0 40 40" fill="none" xmlns="http://www.w3.org/2000/svg">
<path d="M35.6226 21.2928C34.7684 21.288 33.9305 21.0579 33.1938 20.6256C32.4798 20.2057 31.6644 19.9893 30.8362 20C29.9858 19.9762 29.1435 20.1716 28.3905 20.5676C27.4727 21.0379 26.4522 21.2724 25.4211 21.25C24.3897 21.2724 23.3688 21.0379 22.4506 20.5676C21.6972 20.1716 20.8545 19.9761 20.0037 20C19.1533 19.9761 18.311 20.1716 17.558 20.5676C16.6399 21.038 15.6193 21.2725 14.588 21.25C13.5564 21.2724 12.5353 21.0379 11.6168 20.5676C10.8632 20.1715 10.0203 19.976 9.16931 20C8.34003 19.9892 7.52359 20.2055 6.8085 20.6256C5.87537 21.1764 4.7843 21.3978 3.71031 21.2543C3.21995 21.2416 2.75385 21.0382 2.41113 20.6872C2.0684 20.3363 1.87606 19.8655 1.875 19.375C1.87565 18.7122 2.13924 18.0766 2.60795 17.6079C3.07665 17.1392 3.71216 16.8756 4.375 16.875H35.625C36.2878 16.8756 36.9234 17.1392 37.3921 17.6079C37.8608 18.0766 38.1244 18.7122 38.125 19.375C38.1239 19.8655 37.9316 20.3363 37.5889 20.6872C37.2461 21.0382 36.7801 21.2416 36.2897 21.2543C36.0682 21.2796 35.8455 21.2924 35.6226 21.2928Z" fill="#335408"/>
<path d="M22.5 4.375H17.5C14.3451 4.37845 11.2969 5.51701 8.91226 7.5826C6.52764 9.6482 4.96592 12.5029 4.5125 15.625H35.4875C35.0341 12.5029 33.4724 9.6482 31.0877 7.5826C28.7031 5.51701 25.6548 4.37845 22.5 4.375ZM10.8312 9.2375C9.67859 10.1642 8.73322 11.3225 8.05625 12.6375C8.00276 12.7388 7.92277 12.8237 7.8248 12.8832C7.72684 12.9426 7.61458 12.9744 7.5 12.975C7.40024 12.9738 7.30202 12.9503 7.2125 12.9062C7.06581 12.8292 6.95537 12.6974 6.90507 12.5395C6.85478 12.3816 6.86867 12.2102 6.94375 12.0625C7.70235 10.5945 8.75805 9.30046 10.0437 8.2625C10.1078 8.21079 10.1813 8.1722 10.2603 8.14893C10.3392 8.12565 10.422 8.11816 10.5038 8.12686C10.5856 8.13557 10.6649 8.16031 10.7372 8.19966C10.8095 8.23902 10.8733 8.29223 10.925 8.35625C10.9767 8.42027 11.0153 8.49385 11.0386 8.57278C11.0618 8.65171 11.0693 8.73446 11.0606 8.81629C11.0519 8.89812 11.0272 8.97744 10.9878 9.04971C10.9485 9.12198 10.8953 9.18579 10.8312 9.2375ZM12.5 8.125C12.3764 8.125 12.2555 8.08834 12.1528 8.01967C12.05 7.95099 11.9699 7.85338 11.9226 7.73918C11.8753 7.62497 11.8629 7.49931 11.887 7.37807C11.9111 7.25683 11.9706 7.14547 12.0581 7.05806C12.1455 6.97065 12.2568 6.91112 12.3781 6.88701C12.4993 6.86289 12.625 6.87527 12.7392 6.92258C12.8534 6.96988 12.951 7.04999 13.0197 7.15277C13.0883 7.25555 13.125 7.37639 13.125 7.5C13.1245 7.66561 13.0585 7.82431 12.9414 7.94141C12.8243 8.05852 12.6656 8.12452 12.5 8.125Z" fill="#6DC200"/>
<path d="M23.125 24.375H4.375C3.94872 24.3739 3.52557 24.448 3.125 24.5938V22.4313C3.28701 22.4699 3.45235 22.4929 3.61875 22.5C3.86975 22.5295 4.12228 22.5441 4.375 22.5438C5.42827 22.5418 6.46263 22.2638 7.375 21.7375C7.91499 21.4092 8.53683 21.2402 9.16875 21.25C9.83906 21.2257 10.5037 21.3811 11.0938 21.7C12.176 22.2467 13.3752 22.5213 14.5875 22.5C15.7998 22.5213 16.999 22.2467 18.0813 21.7C18.6693 21.3818 19.3317 21.2264 20 21.25H20.0062C20.834 21.2517 21.6272 21.5817 22.2119 22.1675C22.7966 22.7534 23.125 23.5473 23.125 24.375Z" fill="#6DC200"/>
<path d="M36.875 22.4312V24.5937C36.4744 24.4479 36.0513 24.3738 35.625 24.3749H28.125C28.1243 23.5669 28.4373 22.7901 28.9981 22.2083C29.5589 21.6265 30.3237 21.2851 31.1313 21.2562C31.1313 21.2562 31.1313 21.2499 31.1375 21.2562C31.664 21.2989 32.1733 21.4637 32.625 21.7374C33.5377 22.2628 34.5719 22.5408 35.625 22.5437C35.8777 22.5443 36.1303 22.5297 36.3813 22.4999C36.5477 22.4928 36.713 22.4698 36.875 22.4312Z" fill="#6DC200"/>
<path d="M11.6125 30.625H4.51588C4.16961 30.63 3.82584 30.5657 3.50473 30.4361C3.18362 30.3064 2.89164 30.1139 2.64592 29.8699C2.4002 29.6259 2.20569 29.3352 2.07381 29.015C1.94192 28.6948 1.87531 28.3515 1.87788 28.0052C1.90776 27.3633 2.184 26.7577 2.64913 26.3143C3.11426 25.871 3.73243 25.6241 4.375 25.625H6.6125L11.6125 30.625Z" fill="#335408"/>
<path d="M11.9375 29.1812L8.38126 25.625H16.825L11.9375 29.1812Z" fill="#335408"/>
<path d="M38.1221 28.2447C38.0923 28.8866 37.8161 29.4923 37.3509 29.9356C36.8858 30.379 36.2676 30.6259 35.625 30.625H12.0813L18.9625 25.625H23.125C23.125 26.2881 23.3884 26.924 23.8572 27.3928C24.3261 27.8616 24.962 28.125 25.625 28.125C26.288 28.125 26.9239 27.8616 27.3928 27.3928C27.8616 26.924 28.125 26.2881 28.125 25.625H35.4841C35.8303 25.62 36.1741 25.6843 36.4952 25.8139C36.8163 25.9436 37.1083 26.1361 37.354 26.3801C37.5997 26.6241 37.7943 26.9147 37.9262 27.2349C38.0581 27.5551 38.1247 27.8984 38.1221 28.2447Z" fill="#335408"/>
<path d="M4.425 31.875C4.57456 32.9156 5.09411 33.8675 5.88843 34.5563C6.68276 35.245 7.69867 35.6244 8.75 35.625H31.25C32.3013 35.6244 33.3172 35.245 34.1116 34.5563C34.9059 33.8675 35.4254 32.9156 35.575 31.875H4.425Z" fill="#6DC200"/>
<path d="M25.4188 22.5C24.903 22.5048 24.388 22.4588 23.8813 22.3625C24.2082 22.9827 24.3777 23.6738 24.375 24.375V25.625C24.375 25.9565 24.5067 26.2744 24.7411 26.5088C24.9755 26.7433 25.2935 26.875 25.625 26.875C25.9565 26.875 26.2745 26.7433 26.5089 26.5088C26.7433 26.2744 26.875 25.9565 26.875 25.625V24.375C26.8755 23.6362 27.0626 22.9096 27.4188 22.2625C26.7654 22.429 26.093 22.5089 25.4188 22.5Z" fill="#6DC200"/>
</svg>
