<svg width="34" height="34" viewBox="0 0 34 34" fill="none" xmlns="http://www.w3.org/2000/svg">
<path d="M28.907 11.0001H30.5C31.2956 11.0001 32.0587 11.3162 32.6213 11.8788C33.1839 12.4414 33.5 13.2044 33.5 14.0001V20.0001C33.5 20.7957 33.1839 21.5588 32.6213 22.1214C32.0587 22.684 31.2956 23.0001 30.5 23.0001H28.907C28.5413 25.9 27.1299 28.5669 24.9376 30.5001C22.7453 32.4333 19.9229 33.5 17 33.5001V30.5001C19.3869 30.5001 21.6761 29.5519 23.364 27.8641C25.0518 26.1762 26 23.887 26 21.5001V12.5001C26 10.1131 25.0518 7.82396 23.364 6.13613C21.6761 4.44831 19.3869 3.50009 17 3.50009C14.6131 3.50009 12.3239 4.44831 10.636 6.13613C8.94821 7.82396 8 10.1131 8 12.5001V23.0001H3.5C2.70435 23.0001 1.94129 22.684 1.37868 22.1214C0.816071 21.5588 0.5 20.7957 0.5 20.0001V14.0001C0.5 13.2044 0.816071 12.4414 1.37868 11.8788C1.94129 11.3162 2.70435 11.0001 3.5 11.0001H5.093C5.45905 8.10044 6.87062 5.434 9.06286 3.50111C11.2551 1.56821 14.0773 0.501709 17 0.501709C19.9227 0.501709 22.7449 1.56821 24.9371 3.50111C27.1294 5.434 28.541 8.10044 28.907 11.0001ZM3.5 14.0001V20.0001H5V14.0001H3.5ZM29 14.0001V20.0001H30.5V14.0001H29ZM10.64 22.6776L12.23 20.1336C13.6596 21.0291 15.313 21.5028 17 21.5001C18.687 21.5028 20.3404 21.0291 21.77 20.1336L23.36 22.6776C21.4539 23.8718 19.2493 24.5035 17 24.5001C14.7507 24.5035 12.5461 23.8718 10.64 22.6776Z" fill="#232B2F"/>
</svg>
