<svg width="23" height="22" viewBox="0 0 23 22" fill="none" xmlns="http://www.w3.org/2000/svg">
<g clip-path="url(#clip0_1_9892)">
<ellipse cx="8.23912" cy="7.66061" rx="5.34996" ry="5.34286" fill="#83EA00"/>
<path d="M9.6486 8.14147L8.01687 8.73453V11.8904H6.23355V7.48252H6.24692L10.9442 5.77459C11.1617 5.69177 11.3989 5.64992 11.6415 5.65794C12.1261 5.67 12.5949 5.83256 12.9827 6.12302C13.3706 6.41347 13.6582 6.81738 13.8055 7.2786C13.9714 7.79775 14.123 8.1486 14.2603 8.33115C14.6753 8.88379 15.2135 9.33225 15.8323 9.64093C16.4511 9.9496 17.1334 10.11 17.8251 10.1094V11.8904C16.9043 11.8914 15.9947 11.6885 15.1618 11.2963C14.3289 10.9041 13.5935 10.3324 13.0084 9.62234L12.3869 13.1451L14.2585 14.7132V20.7951H12.4752V15.5431L10.4511 13.8476L9.80286 17.5226L3.65576 16.4407L3.96606 14.6865L8.35659 15.4594L9.6486 8.14147ZM12.921 5.21181C12.448 5.21181 11.9944 5.02417 11.66 4.69018C11.3256 4.35618 11.1377 3.90319 11.1377 3.43085C11.1377 2.95852 11.3256 2.50552 11.66 2.17153C11.9944 1.83754 12.448 1.6499 12.921 1.6499C13.394 1.6499 13.8476 1.83754 14.182 2.17153C14.5164 2.50552 14.7043 2.95852 14.7043 3.43085C14.7043 3.90319 14.5164 4.35618 14.182 4.69018C13.8476 5.02417 13.394 5.21181 12.921 5.21181Z" fill="#898989"/>
</g>
<defs>
<clipPath id="clip0_1_9892">
<rect width="21.3998" height="21.3714" fill="white" transform="translate(0.882324 0.314209)"/>
</clipPath>
</defs>
</svg>
