<svg width="20" height="20" viewBox="0 0 20 20" fill="none" xmlns="http://www.w3.org/2000/svg">
<path fill-rule="evenodd" clip-rule="evenodd" d="M8.78291 0.753183C9.0057 0.306682 9.46698 0 9.99988 0C10.5329 0 10.9943 0.306852 11.217 0.753553C11.5478 0.379715 12.0729 0.202735 12.5877 0.340699C13.1026 0.478666 13.4689 0.894485 13.5684 1.38362C13.9846 1.10823 14.5375 1.07323 14.9991 1.33972C15.4607 1.60623 15.7068 2.10262 15.6764 2.6008C16.1495 2.44289 16.6922 2.55227 17.0689 2.92894C17.4459 3.30597 17.5552 3.84939 17.3966 4.32283C17.8955 4.29159 18.3929 4.53778 18.6597 5.00002C18.9263 5.46169 18.8912 6.01473 18.6157 6.43096C19.1054 6.53007 19.5218 6.89651 19.6599 7.41188C19.7979 7.92695 19.6208 8.45222 19.2467 8.78294C19.6933 9.0057 20 9.46702 20 9.99998C20 10.5333 19.6929 10.9948 19.2458 11.2174C19.6196 11.5482 19.7966 12.0732 19.6587 12.5881C19.5208 13.1027 19.1054 13.4688 18.6167 13.5686C18.8925 13.9849 18.9277 14.5381 18.6611 14.9999C18.3941 15.4623 17.8965 15.7085 17.3974 15.6771C17.556 16.1506 17.4468 16.694 17.0698 17.0711C16.6931 17.4478 16.1504 17.5571 15.6773 17.3992C15.7077 17.8974 15.4616 18.3938 15 18.6603C14.5385 18.9268 13.9858 18.8918 13.5696 18.6167C13.47 19.1057 13.1038 19.5214 12.589 19.6593C12.0737 19.7974 11.5482 19.62 11.2175 19.2456C10.9949 19.6927 10.5333 20 9.99988 20C9.46662 20 9.00508 19.6929 8.78247 19.2459C8.45175 19.6201 7.92646 19.7972 7.41137 19.6592C6.89628 19.5212 6.52996 19.1051 6.43061 18.6158C6.01431 18.8917 5.46096 18.9269 4.99908 18.6602C4.53723 18.3936 4.29107 17.8968 4.32181 17.3984C3.8481 17.5575 3.30411 17.4484 2.92678 17.0711C2.54981 16.6941 2.44056 16.1508 2.59902 15.6774C2.10127 15.7074 1.60551 15.4612 1.33923 15C1.07261 14.5382 1.10777 13.985 1.38352 13.5687C0.894737 13.469 0.479295 13.1029 0.341403 12.5883C0.203434 12.0734 0.380435 11.5483 0.754301 11.2175C0.307194 10.9949 0 10.5333 0 9.99999C0 9.46696 0.306814 9.0056 0.753469 8.78287C0.379306 8.45216 0.202118 7.92685 0.340141 7.41174C0.478248 6.89632 0.894777 6.52985 1.38456 6.43079C1.10908 6.01456 1.07403 5.46158 1.34056 4.99995C1.60675 4.5389 2.10227 4.29279 2.59984 4.32253C2.44143 3.84917 2.55069 3.30591 2.92764 2.92896C3.30498 2.55162 3.84898 2.44252 4.3227 2.60167C4.29196 2.10324 4.53812 1.60648 4.99997 1.33983C5.46198 1.07309 6.01549 1.10841 6.43183 1.38451C6.53111 0.895044 6.89747 0.478857 7.41264 0.340817C7.9273 0.202912 8.45215 0.37968 8.78291 0.753183Z" fill="#FF3D00"/>
<g clip-path="url(#clip0_1228_37014)">
<path d="M12.75 14.5C12.2859 14.5 11.8408 14.3156 11.5126 13.9874C11.1844 13.6592 11 13.2141 11 12.75C11 12.2859 11.1844 11.8408 11.5126 11.5126C11.8408 11.1844 12.2859 11 12.75 11C13.2141 11 13.6592 11.1844 13.9874 11.5126C14.3156 11.8408 14.5 12.2859 14.5 12.75C14.5 13.2141 14.3156 13.6592 13.9874 13.9874C13.6592 14.3156 13.2141 14.5 12.75 14.5ZM7.25 9C7.02019 9 6.79262 8.95474 6.5803 8.86679C6.36798 8.77884 6.17507 8.64994 6.01256 8.48744C5.85006 8.32493 5.72116 8.13202 5.63321 7.9197C5.54527 7.70738 5.5 7.47981 5.5 7.25C5.5 7.02019 5.54527 6.79262 5.63321 6.5803C5.72116 6.36798 5.85006 6.17507 6.01256 6.01256C6.17507 5.85006 6.36798 5.72116 6.5803 5.63321C6.79262 5.54527 7.02019 5.5 7.25 5.5C7.71413 5.5 8.15925 5.68437 8.48744 6.01256C8.81563 6.34075 9 6.78587 9 7.25C9 7.71413 8.81563 8.15925 8.48744 8.48744C8.15925 8.81563 7.71413 9 7.25 9ZM13.5355 5.7575L14.2425 6.4645L6.465 14.2425L5.758 13.5355L13.535 5.7575H13.5355Z" fill="white"/>
</g>
<defs>
<clipPath id="clip0_1228_37014">
<rect width="12" height="12" fill="white" transform="translate(4 4)"/>
</clipPath>
</defs>
</svg>
