<svg width="105" height="22" viewBox="0 0 105 22" fill="none" xmlns="http://www.w3.org/2000/svg">
<path d="M2.30388 17.5483H5.74954V7.4945H8.18038V4.89846H5.66694V4.01345C5.66694 3.10483 6.17434 2.62102 7.31896 2.62102C7.63757 2.62102 7.96797 2.63282 8.20398 2.68003V0.402589C7.80277 0.319987 7.10656 0.260986 6.46935 0.260986C3.4839 0.260986 2.30388 1.4056 2.30388 3.88365V4.89846H0.581055V7.4945H2.30388V17.5483Z" fill="white"/>
<path d="M14.1815 17.8079C18.0047 17.8079 20.4474 15.3534 20.4474 11.2234V11.1998C20.4474 7.1051 17.9575 4.63886 14.1697 4.63886C10.3936 4.63886 7.91558 7.1287 7.91558 11.1998V11.2234C7.91558 15.3416 10.3346 17.8079 14.1815 17.8079ZM14.1933 15.1056C12.4941 15.1056 11.4202 13.7014 11.4202 11.2234V11.1998C11.4202 8.75712 12.5059 7.3411 14.1697 7.3411C15.8453 7.3411 16.9427 8.75712 16.9427 11.1998V11.2234C16.9427 13.6896 15.8689 15.1056 14.1933 15.1056Z" fill="white"/>
<path d="M27.3099 17.8079C31.1332 17.8079 33.5758 15.3534 33.5758 11.2234V11.1998C33.5758 7.1051 31.086 4.63886 27.2981 4.63886C23.522 4.63886 21.044 7.1287 21.044 11.1998V11.2234C21.044 15.3416 23.463 17.8079 27.3099 17.8079ZM27.3217 15.1056C25.6225 15.1056 24.5487 13.7014 24.5487 11.2234V11.1998C24.5487 8.75712 25.6343 7.3411 27.2981 7.3411C28.9737 7.3411 30.0711 8.75712 30.0711 11.1998V11.2234C30.0711 13.6896 28.9973 15.1056 27.3217 15.1056Z" fill="white"/>
<path d="M39.3173 17.8079C41.1463 17.8079 42.5387 16.8875 43.2114 15.3888H43.2822V17.5483H46.7278V0.520591H43.2822V7.0933H43.2114C42.5269 5.55927 41.1109 4.63886 39.3173 4.63886C36.1312 4.63886 34.1724 7.0933 34.1724 11.2116V11.2234C34.1724 15.3298 36.1312 17.8079 39.3173 17.8079ZM40.4737 14.9522C38.7509 14.9522 37.6771 13.5244 37.6771 11.2234V11.2116C37.6771 8.89873 38.7627 7.4945 40.4737 7.4945C42.1375 7.4945 43.294 8.93413 43.294 11.2116V11.2234C43.294 13.5126 42.1493 14.9522 40.4737 14.9522Z" fill="white"/>
<path d="M50.2863 21.7137C53.0947 21.7137 54.7939 20.7579 55.7852 17.7725L60.1276 4.89846H56.4932L53.8145 14.787H53.7201L51.0533 4.89846H47.2654L51.7377 17.5483L51.5843 17.9613C51.2775 18.8227 50.7111 19.1177 49.6845 19.1177C49.1771 19.1177 48.7758 19.0469 48.528 18.9997V21.5603C48.9293 21.6311 49.6137 21.7137 50.2863 21.7137Z" fill="white"/>
<path d="M60.6062 17.5483H64.0519V9.91354C64.0519 8.48572 64.9369 7.4945 66.2467 7.4945C67.5212 7.4945 68.2882 8.29692 68.2882 9.65394V17.5483H71.604V9.85454C71.604 8.45032 72.4654 7.4945 73.7753 7.4945C75.1087 7.4945 75.8403 8.29692 75.8403 9.76014V17.5483H79.2859V8.89873C79.2859 6.34988 77.6221 4.63886 75.1441 4.63886C73.2915 4.63886 71.781 5.65367 71.2146 7.2467H71.1438C70.719 5.58287 69.4328 4.63886 67.6628 4.63886C65.9635 4.63886 64.6419 5.58287 64.1227 7.0225H64.0519V4.89846H60.6062V17.5483Z" fill="white"/>
<path d="M84.5082 17.7489C86.1721 17.7489 87.5173 16.9583 88.2371 15.6602H88.3079V17.5483H91.7535V8.87513C91.7535 6.32628 89.6413 4.63886 86.3727 4.63886C83.0332 4.63886 81.0272 6.31448 80.8384 8.65092L80.8266 8.79252H83.9772L84.0008 8.68632C84.166 7.87211 84.9448 7.2703 86.2311 7.2703C87.5763 7.2703 88.3079 7.96651 88.3079 9.08753V9.86634L85.1808 10.0551C82.042 10.2557 80.2602 11.601 80.2602 13.902V13.9256C80.2602 16.1558 81.9712 17.7489 84.5082 17.7489ZM83.6704 13.7486V13.725C83.6704 12.8282 84.3666 12.2618 85.7001 12.1792L88.3079 12.014V12.9226C88.3079 14.2442 87.1751 15.2354 85.6292 15.2354C84.4374 15.2354 83.6704 14.6808 83.6704 13.7486Z" fill="white"/>
<path d="M93.2588 17.5483H96.7044V10.2793C96.7044 8.62732 97.6839 7.4945 99.2297 7.4945C100.775 7.4945 101.554 8.43852 101.554 10.0905V17.5483H105V9.38253C105 6.42069 103.419 4.63886 100.634 4.63886C98.7223 4.63886 97.4242 5.52387 96.7752 6.9753H96.7044V4.89846H93.2588V17.5483Z" fill="white"/>
</svg>
