<svg width="14" height="14" viewBox="0 0 14 14" fill="none" xmlns="http://www.w3.org/2000/svg">
<path d="M6.58659 0.345947C6.09534 0.803694 5.70133 1.3557 5.42805 1.96903C5.15477 2.58236 5.00782 3.24444 4.99598 3.9158C4.98413 4.58715 5.10763 5.25401 5.3591 5.8766C5.61057 6.49919 5.98487 7.06474 6.45966 7.53954C6.93445 8.01433 7.50001 8.38863 8.1226 8.6401C8.74519 8.89157 9.41205 9.01507 10.0834 9.00323C10.7548 8.99138 11.4168 8.84443 12.0302 8.57115C12.6435 8.29787 13.1955 7.90386 13.6533 7.41261C13.4413 10.9026 10.5439 13.6666 7.00059 13.6666C3.31792 13.6666 0.333252 10.6819 0.333252 6.99995C0.333252 3.45661 3.09725 0.559281 6.58659 0.345947Z" fill="#232B2F"/>
</svg>
