<svg width="25" height="25" viewBox="0 0 25 25" fill="none" xmlns="http://www.w3.org/2000/svg">
<path fill-rule="evenodd" clip-rule="evenodd" d="M12.5 0C5.59644 0 0 5.59644 0 12.5C0 19.4036 5.59644 25 12.5 25C19.4036 25 25 19.4036 25 12.5C25 5.59644 19.4036 0 12.5 0Z" fill="#83EA00"/>
<path fill-rule="evenodd" clip-rule="evenodd" d="M9.86323 20.3761C9.91561 20.4683 9.9976 20.5407 10.0963 20.5819C10.156 20.6059 10.2198 20.6188 10.2843 20.62C10.36 20.617 10.4339 20.5965 10.5001 20.5602C10.5663 20.5237 10.6228 20.4725 10.6652 20.4104L16.9329 12.3153C16.9835 12.2476 17.0151 12.1679 17.0245 12.0843C17.0338 12.0006 17.0205 11.916 16.9859 11.8391C16.9462 11.759 16.8844 11.6915 16.8077 11.6443C16.731 11.5972 16.6424 11.5723 16.552 11.5725H14.2619L17.3023 0.955869C21.8224 2.83835 25 7.29814 25 12.5001C25 19.4037 19.4036 25.0001 12.5 25.0001C5.59644 25.0001 0 19.4037 0 12.5001C0 5.84086 5.20732 0.397859 11.7721 0.0209351L7.87364 13.8439C7.85663 13.9148 7.85636 13.9887 7.87284 14.0598C7.88932 14.1309 7.92212 14.1973 7.96871 14.2539C8.0153 14.3105 8.07443 14.3558 8.14154 14.3863C8.20865 14.4167 8.28195 14.4315 8.35577 14.4296H10.6845L9.80699 20.0723C9.79106 20.1769 9.81085 20.2838 9.86323 20.3761Z" fill="#83EA00"/>
<mask id="mask0_1_8777" style="mask-type:alpha" maskUnits="userSpaceOnUse" x="0" y="0" width="25" height="25">
<rect width="25" height="25" rx="12.5" fill="#83EA00"/>
</mask>
<g mask="url(#mask0_1_8777)">
<path d="M10.0963 20.5818C9.9976 20.5406 9.91561 20.4682 9.86323 20.376C9.81085 20.2837 9.79106 20.1769 9.80699 20.0723L10.6845 14.4295H8.35577C8.28194 14.4314 8.20865 14.4166 8.14154 14.3862C8.07443 14.3557 8.0153 14.3105 7.96871 14.2539C7.92212 14.1973 7.88932 14.1308 7.87283 14.0597C7.85635 13.9886 7.85663 13.9147 7.87364 13.8438L14.32 -9.01329C14.3455 -9.11983 14.4073 -9.21446 14.4951 -9.28124C14.5829 -9.34802 14.6914 -9.38288 14.8022 -9.37996H19.6235C19.6955 -9.3802 19.7667 -9.3645 19.8318 -9.33401C19.8968 -9.30352 19.9542 -9.25902 19.9995 -9.20377C20.0456 -9.1479 20.0781 -9.08244 20.0948 -9.01233C20.1116 -8.94223 20.1119 -8.86929 20.096 -8.79901L14.2619 11.5724H16.552C16.6424 11.5722 16.731 11.5971 16.8077 11.6442C16.8844 11.6914 16.9462 11.7589 16.9859 11.839C17.0205 11.916 17.0338 12.0005 17.0244 12.0842C17.0151 12.1678 16.9835 12.2476 16.9329 12.3152L10.6652 20.4103C10.6228 20.4724 10.5663 20.5237 10.5001 20.5601C10.4339 20.5965 10.36 20.617 10.2843 20.6199C10.2198 20.6187 10.156 20.6058 10.0963 20.5818Z" fill="#232B2F"/>
</g>
</svg>
