<svg width="16" height="16" viewBox="0 0 16 16" fill="none" xmlns="http://www.w3.org/2000/svg">
<path d="M3.6275 12.4999C3.78245 12.0607 4.0698 11.6805 4.44995 11.4115C4.83009 11.1425 5.28431 10.998 5.75 10.998C6.21568 10.998 6.6699 11.1425 7.05005 11.4115C7.43019 11.6805 7.71755 12.0607 7.8725 12.4999H15.5V13.9999H7.8725C7.71755 14.439 7.43019 14.8193 7.05005 15.0883C6.6699 15.3573 6.21568 15.5017 5.75 15.5017C5.28431 15.5017 4.83009 15.3573 4.44995 15.0883C4.0698 14.8193 3.78245 14.439 3.6275 13.9999H0.5V12.4999H3.6275ZM8.1275 7.24989C8.28245 6.81074 8.5698 6.43046 8.94995 6.16148C9.33009 5.89249 9.78431 5.74805 10.25 5.74805C10.7157 5.74805 11.1699 5.89249 11.55 6.16148C11.9302 6.43046 12.2175 6.81074 12.3725 7.24989H15.5V8.74989H12.3725C12.2175 9.18903 11.9302 9.56931 11.55 9.83829C11.1699 10.1073 10.7157 10.2517 10.25 10.2517C9.78431 10.2517 9.33009 10.1073 8.94995 9.83829C8.5698 9.56931 8.28245 9.18903 8.1275 8.74989H0.5V7.24989H8.1275ZM3.6275 1.99988C3.78245 1.56073 4.0698 1.18046 4.44995 0.911477C4.83009 0.642494 5.28431 0.498047 5.75 0.498047C6.21568 0.498047 6.6699 0.642494 7.05005 0.911477C7.43019 1.18046 7.71755 1.56073 7.8725 1.99988H15.5V3.49988H7.8725C7.71755 3.93903 7.43019 4.31931 7.05005 4.58829C6.6699 4.85728 6.21568 5.00172 5.75 5.00172C5.28431 5.00172 4.83009 4.85728 4.44995 4.58829C4.0698 4.31931 3.78245 3.93903 3.6275 3.49988H0.5V1.99988H3.6275ZM5.75 3.49988C5.94891 3.49988 6.13968 3.42087 6.28033 3.28021C6.42098 3.13956 6.5 2.9488 6.5 2.74988C6.5 2.55097 6.42098 2.36021 6.28033 2.21955C6.13968 2.0789 5.94891 1.99988 5.75 1.99988C5.55109 1.99988 5.36032 2.0789 5.21967 2.21955C5.07902 2.36021 5 2.55097 5 2.74988C5 2.9488 5.07902 3.13956 5.21967 3.28021C5.36032 3.42087 5.55109 3.49988 5.75 3.49988ZM10.25 8.74989C10.4489 8.74989 10.6397 8.67087 10.7803 8.53022C10.921 8.38956 11 8.1988 11 7.99989C11 7.80097 10.921 7.61021 10.7803 7.46955C10.6397 7.3289 10.4489 7.24989 10.25 7.24989C10.0511 7.24989 9.86032 7.3289 9.71967 7.46955C9.57902 7.61021 9.5 7.80097 9.5 7.99989C9.5 8.1988 9.57902 8.38956 9.71967 8.53022C9.86032 8.67087 10.0511 8.74989 10.25 8.74989ZM5.75 13.9999C5.94891 13.9999 6.13968 13.9209 6.28033 13.7802C6.42098 13.6396 6.5 13.4488 6.5 13.2499C6.5 13.051 6.42098 12.8602 6.28033 12.7196C6.13968 12.5789 5.94891 12.4999 5.75 12.4999C5.55109 12.4999 5.36032 12.5789 5.21967 12.7196C5.07902 12.8602 5 13.051 5 13.2499C5 13.4488 5.07902 13.6396 5.21967 13.7802C5.36032 13.9209 5.55109 13.9999 5.75 13.9999Z" fill="white"/>
</svg>
