<svg width="21" height="21" viewBox="0 0 21 21" fill="none" xmlns="http://www.w3.org/2000/svg">
<path d="M9.00072 -0.000244141C13.9687 -0.000244141 18.0007 4.03176 18.0007 8.99976C18.0007 13.9678 13.9687 17.9998 9.00072 17.9998C4.03272 17.9998 0.000717163 13.9678 0.000717163 8.99976C0.000717163 4.03176 4.03272 -0.000244141 9.00072 -0.000244141ZM9.00072 15.9998C12.8677 15.9998 16.0007 12.8668 16.0007 8.99976C16.0007 5.13176 12.8677 1.99976 9.00072 1.99976C5.13272 1.99976 2.00072 5.13176 2.00072 8.99976C2.00072 12.8668 5.13272 15.9998 9.00072 15.9998ZM17.4857 16.0708L20.3147 18.8988L18.8997 20.3138L16.0717 17.4848L17.4857 16.0708Z" fill="white"/>
</svg>
