<svg width="26" height="26" viewBox="0 0 26 26" fill="none" xmlns="http://www.w3.org/2000/svg">
<path d="M4.2265 19.6835C3.69506 20.0883 3.58822 20.852 4.04343 21.3409C5.21541 22.5997 6.64284 23.6008 8.23529 24.2741C10.2002 25.1048 12.3481 25.4076 14.466 25.1524C16.584 24.8971 18.5984 24.0928 20.3097 22.8191C22.021 21.5454 23.3697 19.8466 24.2221 17.891C25.0745 15.9355 25.401 13.7911 25.1693 11.6704C24.9375 9.54977 24.1555 7.52652 22.9008 5.80124C21.6461 4.07596 19.9623 2.70856 18.0163 1.83459C16.4391 1.12627 14.7341 0.762003 13.0142 0.760256C12.3461 0.759577 11.8594 1.3577 11.9246 2.02253V2.02253C11.9898 2.68737 12.5829 3.1656 13.2507 3.18254C14.5494 3.21548 15.8328 3.5059 17.0252 4.04139C18.5866 4.74262 19.9376 5.83977 20.9443 7.22406C21.951 8.60836 22.5785 10.2317 22.7645 11.9332C22.9504 13.6348 22.6885 15.3553 22.0045 16.9244C21.3206 18.4935 20.2385 19.8566 18.8654 20.8785C17.4923 21.9005 15.876 22.5458 14.1766 22.7506C12.4772 22.9554 10.7539 22.7124 9.17734 22.0459C7.97344 21.5369 6.88708 20.7944 5.97898 19.8654C5.512 19.3877 4.75794 19.2788 4.2265 19.6835V19.6835Z" fill="#232B2F"/>
<path d="M9.65993 2.53703C9.59584 2.3364 9.38098 2.2251 9.18261 2.29588C7.73988 2.8107 6.41478 3.61235 5.28792 4.65388C4.06763 5.78176 3.10949 7.1635 2.481 8.70177C1.85252 10.24 1.56898 11.8974 1.65036 13.5571C1.7255 15.0897 2.11014 16.5899 2.77961 17.9677C2.87166 18.1572 3.10299 18.2281 3.28924 18.1298V18.1298C3.47548 18.0314 3.54607 17.801 3.45447 17.6114C2.83681 16.3323 2.48184 14.941 2.41215 13.5197C2.33624 11.9714 2.60075 10.4253 3.18706 8.99024C3.77337 7.5552 4.66721 6.26618 5.80562 5.21399C6.85058 4.24816 8.07827 3.50344 9.41486 3.02286C9.61305 2.95159 9.72402 2.73766 9.65993 2.53703V2.53703Z" fill="#7BBA2B"/>
</svg>
