<svg width="25" height="25" viewBox="0 0 25 25" fill="none" xmlns="http://www.w3.org/2000/svg">
<path fill-rule="evenodd" clip-rule="evenodd" d="M9.86323 20.3761C9.91561 20.4684 9.9976 20.5408 10.0963 20.5819C10.156 20.6059 10.2198 20.6188 10.2843 20.62C10.36 20.6171 10.4339 20.5966 10.5001 20.5602C10.5663 20.5238 10.6228 20.4725 10.6652 20.4105L16.9329 12.3154C16.9835 12.2477 17.0151 12.168 17.0245 12.0843C17.0338 12.0007 17.0205 11.9161 16.9859 11.8392C16.9462 11.759 16.8844 11.6915 16.8077 11.6444C16.731 11.5972 16.6424 11.5723 16.552 11.5725H14.2619L17.3023 0.95593C21.8224 2.83841 25 7.2982 25 12.5002C25 19.4037 19.4036 25.0002 12.5 25.0002C5.59644 25.0002 0 19.4037 0 12.5002C0 5.84092 5.20732 0.39792 11.7721 0.0209961L7.87364 13.8439C7.85663 13.9149 7.85636 13.9888 7.87284 14.0599C7.88932 14.131 7.92212 14.1974 7.96871 14.254C8.0153 14.3106 8.07443 14.3559 8.14154 14.3863C8.20865 14.4168 8.28195 14.4316 8.35577 14.4296H10.6845L9.80699 20.0724C9.79106 20.177 9.81085 20.2839 9.86323 20.3761Z" fill="#83EA00"/>
<mask id="mask0_1228_34022" style="mask-type:alpha" maskUnits="userSpaceOnUse" x="0" y="0" width="25" height="25">
<rect width="25" height="25" rx="12.5" fill="#83EA00"/>
</mask>
<g mask="url(#mask0_1228_34022)">
<path d="M10.0964 20.5818C9.99777 20.5406 9.91578 20.4682 9.8634 20.376C9.81102 20.2837 9.79123 20.1769 9.80715 20.0723L10.6846 14.4295H8.35594C8.28211 14.4314 8.20882 14.4166 8.14171 14.3862C8.07459 14.3557 8.01546 14.3104 7.96888 14.2539C7.92229 14.1973 7.88949 14.1308 7.873 14.0597C7.85652 13.9886 7.85679 13.9147 7.87381 13.8438L14.3202 -9.01329C14.3457 -9.11983 14.4075 -9.21446 14.4953 -9.28124C14.5831 -9.34802 14.6915 -9.38288 14.8023 -9.37996H19.6236C19.6957 -9.3802 19.7668 -9.3645 19.8319 -9.33401C19.897 -9.30352 19.9543 -9.25902 19.9997 -9.20377C20.0457 -9.1479 20.0783 -9.08244 20.095 -9.01233C20.1117 -8.94223 20.1121 -8.86929 20.0961 -8.79901L14.262 11.5724H16.5522C16.6425 11.5722 16.7311 11.5971 16.8078 11.6442C16.8846 11.6914 16.9463 11.7589 16.9861 11.839C17.0206 11.916 17.0339 12.0005 17.0246 12.0842C17.0153 12.1678 16.9837 12.2476 16.9331 12.3152L10.6653 20.4103C10.623 20.4724 10.5664 20.5237 10.5003 20.5601C10.4341 20.5965 10.3602 20.617 10.2845 20.6199C10.22 20.6187 10.1562 20.6058 10.0964 20.5818Z" fill="#232B2F"/>
</g>
</svg>
