<svg width="20" height="19" viewBox="0 0 20 19" fill="none" xmlns="http://www.w3.org/2000/svg">
<path d="M9.99911 0.416992L13.5208 5.56949L19.5099 7.32699L15.6974 12.2687L15.8766 18.507L9.99911 16.4087L4.12161 18.507L4.30078 12.2687L0.488281 7.32699L6.47745 5.56949L9.99911 0.416992ZM8.33245 10.0003H6.66578C6.66577 10.87 7.00561 11.7052 7.61278 12.3277C8.21996 12.9503 9.0464 13.3109 9.91575 13.3327C10.7851 13.3544 11.6285 13.0356 12.2661 12.4441C12.9036 11.8527 13.2848 11.0355 13.3283 10.167L13.3324 10.0003H11.6658C11.6677 10.4328 11.5015 10.8491 11.2021 11.1613C10.9028 11.4735 10.4938 11.657 10.0617 11.6733C9.62948 11.6895 9.20791 11.5371 8.88602 11.2482C8.56412 10.9594 8.36712 10.5567 8.33661 10.1253L8.33245 10.0003Z" fill="#FFA100"/>
</svg>
