<svg width="18" height="16" viewBox="0 0 18 16" fill="none" xmlns="http://www.w3.org/2000/svg">
<path d="M0.666656 5.91667V1.33333C0.666656 1.11232 0.754454 0.900358 0.910734 0.744078C1.06701 0.587797 1.27898 0.5 1.49999 0.5H16.5C16.721 0.5 16.933 0.587797 17.0892 0.744078C17.2455 0.900358 17.3333 1.11232 17.3333 1.33333V5.91667C16.7808 5.91667 16.2509 6.13616 15.8602 6.52686C15.4695 6.91756 15.25 7.44747 15.25 8C15.25 8.55253 15.4695 9.08244 15.8602 9.47314C16.2509 9.86384 16.7808 10.0833 17.3333 10.0833V14.6667C17.3333 14.8877 17.2455 15.0996 17.0892 15.2559C16.933 15.4122 16.721 15.5 16.5 15.5H1.49999C1.27898 15.5 1.06701 15.4122 0.910734 15.2559C0.754454 15.0996 0.666656 14.8877 0.666656 14.6667V10.0833C1.21919 10.0833 1.74909 9.86384 2.1398 9.47314C2.5305 9.08244 2.74999 8.55253 2.74999 8C2.74999 7.44747 2.5305 6.91756 2.1398 6.52686C1.74909 6.13616 1.21919 5.91667 0.666656 5.91667ZM6.49999 5.5V7.16667H11.5V5.5H6.49999ZM6.49999 8.83333V10.5H11.5V8.83333H6.49999Z" fill="#383838"/>
</svg>
